<?xml version="1.0" encoding="utf-8"?>
<!-- Generator: Adobe Illustrator 25.2.3, SVG Export Plug-In . SVG Version: 6.00 Build 0)  -->
<svg xmlns="http://www.w3.org/2000/svg" xmlns:xlink="http://www.w3.org/1999/xlink" width="40px" height="40px" viewBox="0 0 40 40" version="1.1">
<style type="text/css">
	.st0{fill:#2265A1;}
	.st1{fill:#C01E2E;}
</style>
<desc>Created with Sketch.</desc>
<g xmlns="http://www.w3.org/2000/svg" id="Page-1" stroke="none" stroke-width="1" fill="none" fill-rule="evenodd">
	<g id="site-logo-coderdocs">
			<path class="st0" d="M15.5,40c0-0.1-0.1-0.1-0.1-0.2c-1.4-1.3-2.7-2.7-4.1-4c-2.1-2.1-4.3-4.1-6.4-6.2C4,28.8,3.1,27.9,2.2,27
			c0,0-0.1-0.1-0.1-0.1c-0.7-1.5-0.9-2.9-0.1-4.4c0.5-0.9,1.2-1.5,1.9-2.2c0.3-0.3,0.6-0.6,0.9-0.8c0.3-0.2,0.5-0.6,0.8-0.7
			c0,0.1,0,0.3-0.1,0.4c-0.3,0.6-0.3,1.2-0.3,1.9C5.3,21.7,5.6,22.4,6,23c0.3,0.5,0.7,0.9,1.1,1.3c0,0.2,0.1,0.3,0.2,0.4
			c0.9,0.8,1.7,1.7,2.6,2.5c1.5,1.5,3,3,4.5,4.5c0.4,0.4,0.8,0.8,1.2,1.2c0.1,0.1,0.1,0.2,0.1,0.3c0,2.2,0,4.4,0,6.6
			c0,0.1,0,0.1,0,0.2C15.6,40,15.6,40,15.5,40z"/>
		<path class="st0" d="M32.9,15.6c0-0.3-0.3-0.5-0.5-0.7c-0.7-0.6-1.3-1.3-1.9-1.9c-0.7-0.6-1.3-1.3-1.9-2c-0.5-0.5-1-1-1.4-1.4
			c-0.9-0.8-1.8-1.8-2.6-2.6c-0.1-0.1-0.1-0.2-0.1-0.3c0-2.2,0-4.4,0-6.6c0,0,0-0.1,0-0.1c0.3,0,0.3,0.3,0.4,0.4
			c0.7,0.6,1.4,1.3,2.1,1.9c1,1,1.9,1.9,2.9,2.8c1,1,1.9,1.9,2.9,2.9c1,0.9,1.9,1.9,2.9,2.8c0.7,0.7,1.4,1.4,2.1,2
			c0.1,0.1,0.2,0.2,0.3,0.4c0.9,1.9,0.6,3.7-0.8,5.3c-0.8,1-1.8,1.8-2.8,2.6c0-0.1,0-0.2,0.1-0.3c0.2-0.5,0.3-1,0.3-1.5
			c0-0.9-0.3-1.8-0.8-2.6C33.7,16.4,33.3,16,32.9,15.6z"/>
		<path class="st0" d="M24.4,33c0.4-0.3,0.8-0.7,1.1-1.1c0.9-0.8,1.7-1.7,2.6-2.6c1.3-1.3,2.6-2.6,3.9-3.8c0.3-0.3,0.7-0.7,1-1
			c0.1-0.1,0.2-0.2,0.3-0.2c2.2,0,4.5,0,6.7,0c0,0.1,0,0.2-0.1,0.2c-1.1,1.1-2.2,2.3-3.4,3.4c-0.3,0.3-0.7,0.7-1,1
			c-1.3,1.4-2.6,2.7-3.9,4.1c-1.1,1.1-2.1,2.3-3.2,3.3c-0.4,0.4-0.7,0.7-1.1,1.1c-0.2,0.2-0.5,0.4-0.9,0.5c-0.9,0.3-1.7,0.6-2.7,0.3
			c-0.4-0.1-0.8-0.3-1.2-0.5c-1.5-0.8-2.6-2.1-3.7-3.4c0,0,0-0.1,0-0.1c0.1,0,0.2,0,0.4,0C21.2,35.3,23.3,34.1,24.4,33z"/>
		<path class="st0" d="M15.5,7.1c-0.2,0-0.3,0.1-0.4,0.2c-0.5,0.5-1.1,1.1-1.6,1.6c-0.6,0.6-1.3,1.3-1.9,1.9
			c-0.4,0.4-0.9,0.9-1.3,1.3c-0.8,0.8-1.6,1.6-2.4,2.4c-0.3,0.3-0.6,0.6-1,1c-0.1,0.1-0.2,0.2-0.4,0.2c-1.5,0-3,0-4.5,0
			c-0.6,0-1.3,0-1.9,0c-0.1,0-0.2,0-0.2-0.1c0-0.1,0.1-0.1,0.1-0.2c0.6-0.7,1.3-1.3,1.9-2c0.9-1,1.9-1.9,2.8-2.9
			c0.9-0.9,1.8-1.8,2.7-2.7C8.4,6.9,9.3,6,10.1,5.1c0.9-0.9,1.8-1.8,2.7-2.7C13.1,2,13.6,1.9,14,1.8c1.6-0.5,3.1-0.2,4.4,0.9
			c0.9,0.7,1.7,1.5,2.3,2.4c0.1,0.1,0.3,0.1,0.2,0.3c-0.1,0-0.2,0.1-0.3,0c-0.2-0.2-0.4-0.1-0.5-0.1c-0.7-0.1-1.4-0.1-2.1,0.1
			c-0.9,0.3-1.7,0.8-2.4,1.4C15.6,6.9,15.5,7,15.5,7.1z"/>
		<path class="st1" d="M15.5,7.1c0-0.1,0-0.2,0.1-0.2c0.8-0.5,1.5-1.1,2.4-1.4c0.7-0.2,1.4-0.2,2.1-0.1c0.2,0,0.4,0,0.5,0.1
			c0.1,0.1,0.2,0,0.3,0c0.1,0.1,0.2,0.1,0.2,0.2c2.4,2.4,4.8,4.7,7.1,7.1c0.5,0.5,1,1,1.4,1.5c0.3,0.4,0.7,0.7,1.1,1.1
			c0.1,0.1,0.2,0.1,0.1,0.3c-0.1,0.1-0.2,0.1-0.3,0.1c-1.8,0-3.5,0-5.3,0c-0.4,0-0.8-0.1-1.2,0c-0.1,0-0.2-0.1-0.2-0.1
			c-2.1-2.1-4.2-4.2-6.4-6.4c-0.6-0.6-1.3-1.3-1.9-1.9C15.7,7.2,15.6,7.1,15.5,7.1z"/>
		<path class="st1" d="M24.4,33c-1.1,1.2-3.2,2.3-5.2,1.5c-0.1,0-0.2-0.1-0.4,0c-0.6-0.5-1.1-1.1-1.7-1.6c-0.8-0.8-1.6-1.6-2.4-2.4
			c-1.9-1.9-3.7-3.7-5.6-5.6c-0.1-0.1-0.2-0.2-0.4-0.4c0.1-0.1,0.2-0.1,0.3-0.1c2,0,4,0,6,0c0.4,0,0.7,0.1,1,0.4c2,2,3.9,4,5.9,5.9
			c0.7,0.7,1.4,1.3,2,2C24.2,32.8,24.3,32.8,24.4,33z"/>
		<path class="st1" d="M32.9,15.6c0.4,0.3,0.7,0.7,1,1.2c0.5,0.8,0.7,1.7,0.8,2.6c0,0.5-0.1,1-0.3,1.5c0,0.1,0,0.2-0.1,0.3
			c-0.6,0.6-1.2,1.2-1.8,1.8c-1.2,1.2-2.3,2.3-3.5,3.5c-1.5,1.5-2.9,2.9-4.4,4.4c-0.1,0.1-0.2,0.2-0.3,0.3c-0.1-0.1-0.1-0.1-0.1-0.2
			c0-1.9,0-3.9,0-5.8c0-1.1-0.1-0.9,0.7-1.6c2.5-2.5,5.1-5.1,7.6-7.6C32.7,15.8,32.8,15.7,32.9,15.6z"/>
		<path class="st1" d="M7,24.3C6.6,23.9,6.3,23.5,6,23c-0.4-0.6-0.7-1.3-0.7-2.1c0-0.6-0.1-1.3,0.3-1.9c0.1-0.1,0.1-0.2,0.1-0.4
			c0.8-0.8,1.5-1.5,2.3-2.3c0.5-0.5,1-0.9,1.4-1.4c1.6-1.6,3.2-3.2,4.9-4.8c0.4-0.4,0.7-0.8,1.2-1.1c0,0,0.1-0.1,0.1-0.1
			c0.1,0,0,0.1,0,0.2c0.1,0.4,0,0.7,0,1.1c0,1.7,0,3.4,0,5.1c0,0.3-0.1,0.6-0.4,0.8c-0.1,0-0.1,0.1-0.2,0.2c-2,2-4,4-6,6
			c-0.6,0.6-1.2,1.2-1.8,1.8C7.2,24.2,7.1,24.3,7,24.3z"/>
	</g>
</g>
</svg>
